<svg id="svg" version="1.1" xmlns="http://www.w3.org/2000/svg" xmlns:xlink="http://www.w3.org/1999/xlink" width="400" height="320.049968769519" viewBox="0, 0, 400,320.049968769519"><g id="svgg"><path id="path0" d="M130.169 32.730 L 130.169 40.225 117.676 40.225 L 105.184 40.225 105.184 75.203 L 105.184 110.181 117.676 110.181 L 130.169 110.181 130.169 117.676 L 130.169 125.172 197.626 125.172 L 265.084 125.172 265.084 75.203 L 265.084 25.234 197.626 25.234 L 130.169 25.234 130.169 32.730 M260.087 75.203 L 260.087 120.175 197.626 120.175 L 135.166 120.175 135.166 75.203 L 135.166 30.231 197.626 30.231 L 260.087 30.231 260.087 75.203 M67.833 170.415 C 34.109 173.873,6.601 199.734,1.152 233.104 C 0.667 236.076,0.205 240.639,0.373 240.806 C 0.443 240.876,0.500 240.745,0.500 240.516 C 0.500 240.157,0.824 240.100,2.868 240.100 C 5.580 240.100,5.347 240.342,5.629 237.227 C 8.756 202.702,39.723 175.141,75.389 175.141 L 80.200 175.141 80.200 172.642 L 80.200 170.144 75.016 170.177 C 72.164 170.195,68.932 170.302,67.833 170.415 M290.069 182.626 L 290.069 185.134 314.563 185.134 C 340.287 185.134,341.533 185.179,347.033 186.294 C 372.118 191.381,391.460 212.341,394.620 237.862 C 398.661 270.504,375.070 300.616,342.276 304.676 C 339.681 304.997,335.187 305.059,314.623 305.059 L 290.069 305.059 290.069 307.568 L 290.069 310.076 315.990 309.992 C 344.464 309.900,343.249 309.960,350.156 308.308 C 384.877 300.006,406.564 264.688,398.253 229.981 C 392.604 206.391,373.736 187.523,350.156 181.885 C 343.249 180.234,344.464 180.294,315.990 180.202 L 290.069 180.118 290.069 182.626 M130.169 202.615 L 130.169 210.101 100.250 210.186 C 65.655 210.283,67.628 210.123,60.477 213.409 C 33.768 225.681,33.768 264.513,60.477 276.785 C 67.628 280.071,65.655 279.911,100.250 280.008 L 130.169 280.092 130.169 287.579 L 130.169 295.066 197.626 295.066 L 265.084 295.066 265.084 245.097 L 265.084 195.128 197.626 195.128 L 130.169 195.128 130.169 202.615 M260.087 245.097 L 260.087 290.069 197.626 290.069 L 135.166 290.069 135.166 245.097 L 135.166 200.125 197.626 200.125 L 260.087 200.125 260.087 245.097 M331.567 215.395 C 311.228 217.753,299.226 239.842,308.300 258.214 C 319.299 280.480,350.780 280.480,361.782 258.214 C 372.195 237.138,354.940 212.685,331.567 215.395 M341.358 220.824 C 359.650 225.731,366.199 248.453,353.279 262.183 C 339.821 276.485,316.030 270.461,310.750 251.414 C 309.963 248.574,309.963 241.620,310.750 238.780 C 314.441 225.466,328.317 217.325,341.358 220.824 M80.200 235.103 L 80.200 240.100 85.197 240.100 L 90.194 240.100 90.194 245.097 L 90.194 250.094 85.197 250.094 L 80.200 250.094 80.200 255.091 L 80.200 260.087 75.203 260.087 L 70.206 260.087 70.206 255.091 L 70.206 250.094 65.209 250.094 L 60.212 250.094 60.212 245.097 L 60.212 240.100 65.209 240.100 L 70.206 240.100 70.206 235.103 L 70.206 230.106 75.203 230.106 L 80.200 230.106 80.200 235.103 M0.403 250.718 C 3.522 289.523,34.955 319.148,73.891 319.980 L 80.200 320.114 80.200 317.616 L 80.200 315.118 74.016 314.982 C 38.655 314.206,8.716 287.057,5.629 252.967 C 5.347 249.853,5.577 250.094,2.887 250.094 C 0.863 250.094,0.519 250.033,0.409 249.656 C 0.339 249.416,0.336 249.894,0.403 250.718 " stroke="none" fill="#728595" fill-rule="evenodd"></path><path id="path1" d="M80.200 75.203 L 80.200 150.156 90.194 150.156 L 100.187 150.156 100.187 160.150 L 100.187 170.144 90.194 170.144 L 80.200 170.144 80.200 190.131 L 80.200 210.119 82.698 210.119 L 85.197 210.119 85.197 192.630 L 85.197 175.141 185.134 175.141 L 285.072 175.141 285.072 245.097 L 285.072 315.053 185.134 315.053 L 85.197 315.053 85.197 297.564 L 85.197 280.075 82.698 280.075 L 80.200 280.075 80.200 300.062 L 80.200 320.050 185.134 320.050 L 290.069 320.050 290.069 245.097 L 290.069 170.144 280.075 170.144 L 270.081 170.144 270.081 160.150 L 270.081 150.156 280.075 150.156 L 290.069 150.156 290.069 75.203 L 290.069 0.250 185.134 0.250 L 80.200 0.250 80.200 75.203 M285.072 75.203 L 285.072 145.159 185.134 145.159 L 85.197 145.159 85.197 75.203 L 85.197 5.247 185.134 5.247 L 285.072 5.247 285.072 75.203 " stroke="none" fill="#a93f40" fill-rule="evenodd"></path><path id="path2" d="M85.197 75.203 L 85.197 145.159 185.134 145.159 L 285.072 145.159 285.072 75.203 L 285.072 5.247 185.134 5.247 L 85.197 5.247 85.197 75.203 M265.084 75.203 L 265.084 125.172 197.626 125.172 L 130.169 125.172 130.169 117.676 L 130.169 110.181 117.676 110.181 L 105.184 110.181 105.184 75.203 L 105.184 40.225 117.676 40.225 L 130.169 40.225 130.169 32.730 L 130.169 25.234 197.626 25.234 L 265.084 25.234 265.084 75.203 M85.197 192.630 L 85.197 210.119 107.683 210.119 L 130.169 210.119 130.169 202.623 L 130.169 195.128 197.626 195.128 L 265.084 195.128 265.084 245.097 L 265.084 295.066 197.626 295.066 L 130.169 295.066 130.169 287.570 L 130.169 280.075 107.683 280.075 L 85.197 280.075 85.197 297.564 L 85.197 315.053 185.134 315.053 L 285.072 315.053 285.072 245.097 L 285.072 175.141 185.134 175.141 L 85.197 175.141 85.197 192.630 " stroke="none" fill="#f48c8c" fill-rule="evenodd"></path><path id="path3" d="M135.166 75.203 L 135.166 120.175 197.626 120.175 L 260.087 120.175 260.087 75.203 L 260.087 30.231 197.626 30.231 L 135.166 30.231 135.166 75.203 M337.102 185.307 C 337.342 185.369,337.736 185.369,337.976 185.307 C 338.217 185.244,338.020 185.192,337.539 185.192 C 337.058 185.192,336.861 185.244,337.102 185.307 M135.166 245.097 L 135.166 290.069 197.626 290.069 L 260.087 290.069 260.087 245.097 L 260.087 200.125 197.626 200.125 L 135.166 200.125 135.166 245.097 M394.811 242.598 C 394.811 243.079,394.863 243.276,394.926 243.036 C 394.988 242.795,394.988 242.402,394.926 242.161 C 394.863 241.921,394.811 242.117,394.811 242.598 M394.811 247.595 C 394.811 248.076,394.863 248.273,394.926 248.032 C 394.988 247.792,394.988 247.399,394.926 247.158 C 394.863 246.918,394.811 247.114,394.811 247.595 " stroke="none" fill="#c3eaf6" fill-rule="evenodd"></path><path id="path4" d="M70.208 175.423 C 39.533 177.490,13.269 200.349,6.898 230.526 C 6.391 232.926,5.497 238.913,5.497 239.905 C 5.497 240.012,7.689 240.100,10.369 240.100 L 15.240 240.100 15.240 245.097 L 15.240 250.094 10.369 250.094 C 7.689 250.094,5.497 250.181,5.497 250.289 C 5.497 256.581,8.938 268.816,12.890 276.577 C 24.939 300.238,47.375 314.103,75.016 314.970 L 80.200 315.133 80.200 297.604 L 80.200 280.075 75.997 280.075 C 55.727 280.075,40.227 264.918,40.227 245.097 C 40.227 225.262,55.715 210.125,76.015 210.120 L 80.200 210.119 80.200 192.630 L 80.200 175.141 76.765 175.176 C 74.875 175.196,71.925 175.307,70.208 175.423 M290.069 245.097 L 290.069 305.092 315.116 304.991 C 344.379 304.874,344.844 304.838,353.654 301.946 C 382.635 292.436,399.839 262.615,393.588 232.730 C 388.834 210.002,370.540 191.545,347.908 186.640 C 341.722 185.300,341.952 185.310,315.116 185.202 L 290.069 185.102 290.069 245.097 M342.364 215.951 C 362.124 221.131,371.194 243.690,360.485 261.019 C 351.764 275.132,332.711 279.323,318.650 270.221 C 300.758 258.637,300.575 232.026,318.306 220.222 C 325.447 215.468,334.435 213.872,342.364 215.951 M70.206 235.103 L 70.206 240.100 65.209 240.100 L 60.212 240.100 60.212 245.097 L 60.212 250.094 65.209 250.094 L 70.206 250.094 70.206 255.091 L 70.206 260.087 75.203 260.087 L 80.200 260.087 80.200 255.091 L 80.200 250.094 85.197 250.094 L 90.194 250.094 90.194 245.097 L 90.194 240.100 85.197 240.100 L 80.200 240.100 80.200 235.103 L 80.200 230.106 75.203 230.106 L 70.206 230.106 70.206 235.103 " stroke="none" fill="#e4ecf4" fill-rule="evenodd"></path><path id="path5" d="M25.601 195.690 L 24.110 197.252 25.671 195.760 C 27.122 194.375,27.347 194.129,27.163 194.129 C 27.124 194.129,26.421 194.831,25.601 195.690 M25.609 294.566 C 26.425 295.390,27.149 296.065,27.217 296.065 C 27.286 296.065,26.675 295.390,25.859 294.566 C 25.043 293.741,24.319 293.067,24.250 293.067 C 24.182 293.067,24.793 293.741,25.609 294.566 " stroke="none" fill="#94a4b4" fill-rule="evenodd"></path><path id="path6" d="M70.768 175.313 C 71.009 175.376,71.402 175.376,71.643 175.313 C 71.883 175.250,71.686 175.199,71.205 175.199 C 70.725 175.199,70.528 175.250,70.768 175.313 M376.015 201.499 C 376.481 201.980,376.919 202.374,376.987 202.374 C 377.056 202.374,376.731 201.980,376.265 201.499 C 375.799 201.018,375.361 200.625,375.292 200.625 C 375.224 200.625,375.549 201.018,376.015 201.499 M378.513 203.998 C 378.980 204.478,379.417 204.872,379.486 204.872 C 379.555 204.872,379.229 204.478,378.763 203.998 C 378.297 203.517,377.860 203.123,377.791 203.123 C 377.722 203.123,378.047 203.517,378.513 203.998 M50.455 220.300 L 49.594 221.237 50.531 220.376 C 51.403 219.574,51.583 219.363,51.392 219.363 C 51.350 219.363,50.929 219.785,50.455 220.300 M317.294 227.545 L 315.678 229.232 317.364 227.615 C 318.931 226.113,319.165 225.859,318.981 225.859 C 318.943 225.859,318.184 226.618,317.294 227.545 M352.530 227.483 C 353.415 228.376,354.195 229.107,354.264 229.107 C 354.333 229.107,353.665 228.376,352.780 227.483 C 351.894 226.590,351.114 225.859,351.045 225.859 C 350.976 225.859,351.644 226.590,352.530 227.483 M317.302 262.711 C 318.187 263.604,318.967 264.335,319.036 264.335 C 319.105 264.335,318.437 263.604,317.552 262.711 C 316.666 261.818,315.886 261.087,315.817 261.087 C 315.748 261.087,316.416 261.818,317.302 262.711 M352.522 262.773 L 350.906 264.460 352.592 262.843 C 354.159 261.341,354.393 261.087,354.209 261.087 C 354.171 261.087,353.412 261.846,352.522 262.773 M49.719 269.160 C 49.719 269.203,50.084 269.568,50.531 269.972 L 51.343 270.706 50.609 269.894 C 49.925 269.137,49.719 268.967,49.719 269.160 M378.500 286.259 L 377.639 287.196 378.576 286.334 C 379.091 285.861,379.513 285.439,379.513 285.398 C 379.513 285.207,379.301 285.387,378.500 286.259 M376.002 288.757 L 375.141 289.694 376.077 288.833 C 376.593 288.359,377.014 287.938,377.014 287.896 C 377.014 287.705,376.803 287.885,376.002 288.757 M70.768 314.975 C 71.009 315.038,71.402 315.038,71.643 314.975 C 71.883 314.913,71.686 314.861,71.205 314.861 C 70.725 314.861,70.528 314.913,70.768 314.975 " stroke="none" fill="#a4b0c0" fill-rule="evenodd"></path><path id="path7" d="M331.855 220.362 C 313.574 222.936,304.142 243.630,314.324 258.825 C 326.474 276.957,354.085 271.953,359.320 250.670 C 363.352 234.276,348.606 218.003,331.855 220.362 M0.412 241.412 C 0.209 243.098,0.209 247.095,0.412 248.782 L 0.569 250.094 7.905 250.094 L 15.240 250.094 15.240 245.097 L 15.240 240.100 7.905 240.100 L 0.569 240.100 0.412 241.412 " stroke="none" fill="#9cbcac" fill-rule="evenodd"></path><path id="path8" d="" stroke="none" fill="#c060c8" fill-rule="evenodd"></path></g></svg>